<svg width="30" height="30" fill="none" xmlns="http://www.w3.org/2000/svg"><g clip-path="url(#clip0)"><path d="M29.55 18.629c-2.003 8.035-10.143 12.925-18.18 10.922C3.339 27.548-1.552 19.408.452 11.373 2.454 3.336 10.593-1.555 18.627.449c8.036 2.003 12.926 10.143 10.923 18.18z" fill="#F7931A"/><path d="M21.614 12.863c.298-1.996-1.222-3.069-3.3-3.785l.674-2.703-1.646-.41-.656 2.632a68.11 68.11 0 00-1.318-.31l.66-2.65-1.644-.41-.675 2.702c-.358-.081-.71-.162-1.05-.247l.001-.008-2.27-.567-.437 1.758s1.22.28 1.195.297c.667.167.787.608.767.957l-.768 3.08c.046.012.105.03.171.055l-.173-.043-1.077 4.315c-.082.203-.288.506-.754.391.016.024-1.196-.299-1.196-.299L7.3 19.503l2.143.534c.398.1.789.204 1.173.303l-.682 2.735 1.644.41.675-2.706c.449.122.885.235 1.311.34l-.672 2.694 1.646.41.681-2.73c2.807.531 4.917.317 5.805-2.22.715-2.045-.036-3.224-1.512-3.993 1.075-.249 1.885-.956 2.101-2.417zm-3.761 5.273c-.51 2.044-3.95.94-5.066.662l.904-3.623c1.116.278 4.693.83 4.162 2.96zm.509-5.303c-.464 1.86-3.329.915-4.258.683l.82-3.286c.929.232 3.921.664 3.438 2.603z" fill="#fff"/></g><defs><clipPath id="clip0"><path fill="#fff" d="M0 0h30v30H0z"/></clipPath></defs></svg>
