<svg width="30" height="30" fill="none" xmlns="http://www.w3.org/2000/svg"><path d="M29.552 18.629C27.547 26.664 19.407 31.554 11.37 29.55 3.336 27.548-1.555 19.408.45 11.373 2.451 3.336 10.591-1.555 18.626.449c8.037 2.003 12.928 10.144 10.924 18.18z" fill="#E7ECF3"/><path d="M14.998 4.5l-.13.445v12.922l.13.131 5.999-3.546L14.998 4.5z" fill="#343434"/><path d="M14.998 4.5L9 14.453l5.998 3.545V4.5z" fill="#8C8C8C"/><path d="M14.998 19.134l-.073.09v4.603l.073.215L21 15.59l-6.002 3.544z" fill="#3C3C3B"/><path d="M14.998 24.043v-4.91L9 15.59l5.998 8.453z" fill="#8C8C8C"/><path d="M14.998 17.998l5.998-3.545-5.998-2.727v6.272z" fill="#141414"/><path d="M9 14.452l5.998 3.546v-6.272L9 14.452z" fill="#393939"/></svg>
