<svg width="18" height="18" fill="none" xmlns="http://www.w3.org/2000/svg"><path d="M17.245 11.056l-.016.067a8.5 8.5 0 01-10.286 6.123A8.498 8.498 0 01.755 6.944h0a8.498 8.498 0 0110.3-6.19h0a8.498 8.498 0 016.19 10.301z" stroke="#1ED367"/><path d="M6.8 9.093c-.45 0-.813-.159-1.09-.477-.275-.318-.413-.735-.413-1.251 0-.516.138-.933.414-1.251.276-.318.639-.477 1.089-.477.45 0 .813.159 1.089.477.282.312.423.729.423 1.251 0 .522-.141.942-.423 1.26-.276.312-.64.468-1.09.468zM10.58 5.7h.882L7.16 12h-.882l4.302-6.3zM6.8 8.463a.647.647 0 00.567-.288c.138-.192.207-.462.207-.81 0-.348-.07-.618-.207-.81a.647.647 0 00-.567-.288.67.67 0 00-.567.297c-.138.192-.207.459-.207.801s.069.612.207.81a.676.676 0 00.567.288zm4.13 3.6c-.45 0-.812-.159-1.088-.477-.276-.318-.414-.735-.414-1.251 0-.516.138-.933.414-1.251.276-.318.639-.477 1.089-.477.45 0 .813.159 1.089.477.282.318.423.735.423 1.251 0 .516-.141.933-.423 1.251-.276.318-.64.477-1.09.477zm0-.63a.66.66 0 00.568-.288c.138-.198.207-.468.207-.81s-.07-.609-.207-.801a.655.655 0 00-.567-.297.66.66 0 00-.567.288c-.138.192-.207.462-.207.81 0 .348.069.618.207.81a.66.66 0 00.567.288z" fill="#1ED367"/></svg>
