<svg width="40" height="40" fill="none" xmlns="http://www.w3.org/2000/svg"><circle cx="20" cy="20" r="19" fill="#091925"/><circle cx="20" cy="20" r="19" fill="url(#paint0_linear)"/><circle cx="20" cy="20" r="19" stroke="#1ED367" stroke-width="2"/><path d="M12.688 18.037c0-2.253.507-4.053 1.508-5.353 1.209-1.57 3.118-2.418 5.68-2.523v-3.63l7.436 6.328-7.436 6.329v-3.61c-1.556.043-2.73.267-3.666.698-1.01.466-1.744 1.162-2.534 2.064l-.989 1.129v-1.433z" fill="url(#paint1_linear)"/><path d="M27.313 21.963c0 2.253-.508 4.053-1.51 5.353-1.208 1.57-3.117 2.418-5.679 2.523v3.63l-7.436-6.328 7.436-6.328v3.608c1.556-.041 2.73-.266 3.666-.697 1.01-.466 1.744-1.162 2.534-2.064l.988-1.129v1.433z" fill="url(#paint2_linear)"/><defs><linearGradient id="paint0_linear" x1="20" y1="40" x2="20" y2="0" gradientUnits="userSpaceOnUse"><stop stop-color="#fff" stop-opacity=".08"/><stop offset="1" stop-color="#fff" stop-opacity="0"/></linearGradient><linearGradient id="paint1_linear" x1="22.739" y1="10.652" x2="12.694" y2="10.909" gradientUnits="userSpaceOnUse"><stop stop-color="#1ED367"/><stop offset="1" stop-color="#1ED367" stop-opacity="0"/></linearGradient><linearGradient id="paint2_linear" x1="17.261" y1="29.348" x2="27.306" y2="29.091" gradientUnits="userSpaceOnUse"><stop stop-color="#1ED367"/><stop offset="1" stop-color="#1ED367" stop-opacity="0"/></linearGradient></defs></svg>
